<svg id="visual" viewBox="0 0 900 600" width="900" height="600" xmlns="http://www.w3.org/2000/svg" xmlns:xlink="http://www.w3.org/1999/xlink" version="1.1"><rect x="0" y="0" width="900" height="600" fill="#374151"></rect><path d="M0 363L21.5 366.2C43 369.3 86 375.7 128.8 383.5C171.7 391.3 214.3 400.7 257.2 404.8C300 409 343 408 385.8 402.5C428.7 397 471.3 387 514.2 393.8C557 400.7 600 424.3 642.8 427C685.7 429.7 728.3 411.3 771.2 403.2C814 395 857 397 878.5 398L900 399L900 601L878.5 601C857 601 814 601 771.2 601C728.3 601 685.7 601 642.8 601C600 601 557 601 514.2 601C471.3 601 428.7 601 385.8 601C343 601 300 601 257.2 601C214.3 601 171.7 601 128.8 601C86 601 43 601 21.5 601L0 601Z" fill="#63921a"></path><path d="M0 410L21.5 421.3C43 432.7 86 455.3 128.8 453.5C171.7 451.7 214.3 425.3 257.2 413.5C300 401.7 343 404.3 385.8 404C428.7 403.7 471.3 400.3 514.2 398.5C557 396.7 600 396.3 642.8 408.2C685.7 420 728.3 444 771.2 456.3C814 468.7 857 469.3 878.5 469.7L900 470L900 601L878.5 601C857 601 814 601 771.2 601C728.3 601 685.7 601 642.8 601C600 601 557 601 514.2 601C471.3 601 428.7 601 385.8 601C343 601 300 601 257.2 601C214.3 601 171.7 601 128.8 601C86 601 43 601 21.5 601L0 601Z" fill="#6f9f25"></path><path d="M0 472L21.5 473.3C43 474.7 86 477.3 128.8 478.3C171.7 479.3 214.3 478.7 257.2 483C300 487.3 343 496.7 385.8 490C428.7 483.3 471.3 460.7 514.2 455.8C557 451 600 464 642.8 473.8C685.7 483.7 728.3 490.3 771.2 491.2C814 492 857 487 878.5 484.5L900 482L900 601L878.5 601C857 601 814 601 771.2 601C728.3 601 685.7 601 642.8 601C600 601 557 601 514.2 601C471.3 601 428.7 601 385.8 601C343 601 300 601 257.2 601C214.3 601 171.7 601 128.8 601C86 601 43 601 21.5 601L0 601Z" fill="#7bad2f"></path><path d="M0 530L21.5 523.8C43 517.7 86 505.3 128.8 502.7C171.7 500 214.3 507 257.2 509.5C300 512 343 510 385.8 507.5C428.7 505 471.3 502 514.2 507C557 512 600 525 642.8 523.8C685.7 522.7 728.3 507.3 771.2 503.3C814 499.3 857 506.7 878.5 510.3L900 514L900 601L878.5 601C857 601 814 601 771.2 601C728.3 601 685.7 601 642.8 601C600 601 557 601 514.2 601C471.3 601 428.7 601 385.8 601C343 601 300 601 257.2 601C214.3 601 171.7 601 128.8 601C86 601 43 601 21.5 601L0 601Z" fill="#87ba39"></path><path d="M0 560L21.5 560.8C43 561.7 86 563.3 128.8 565.3C171.7 567.3 214.3 569.7 257.2 566.7C300 563.7 343 555.3 385.8 554.2C428.7 553 471.3 559 514.2 563.3C557 567.7 600 570.3 642.8 569.3C685.7 568.3 728.3 563.7 771.2 563C814 562.3 857 565.7 878.5 567.3L900 569L900 601L878.5 601C857 601 814 601 771.2 601C728.3 601 685.7 601 642.8 601C600 601 557 601 514.2 601C471.3 601 428.7 601 385.8 601C343 601 300 601 257.2 601C214.3 601 171.7 601 128.8 601C86 601 43 601 21.5 601L0 601Z" fill="#94c843"></path></svg>
