<svg id="visual" viewBox="0 0 1200 450" width="1200" height="450" xmlns="http://www.w3.org/2000/svg" xmlns:xlink="http://www.w3.org/1999/xlink" version="1.1"><rect x="0" y="0" width="1200" height="450" fill="#1F2937"></rect><defs><linearGradient id="grad1_0" x1="62.5%" y1="0%" x2="100%" y2="100%"><stop offset="-3.333333333333332%" stop-color="#1f2937" stop-opacity="1"></stop><stop offset="103.33333333333334%" stop-color="#1f2937" stop-opacity="1"></stop></linearGradient></defs><defs><linearGradient id="grad2_0" x1="0%" y1="0%" x2="37.5%" y2="100%"><stop offset="-3.333333333333332%" stop-color="#1f2937" stop-opacity="1"></stop><stop offset="103.33333333333334%" stop-color="#1f2937" stop-opacity="1"></stop></linearGradient></defs><g transform="translate(1200, 0)"><path d="M0 405C-49.7 386.9 -99.5 368.8 -143.5 346.5C-187.5 324.1 -225.8 297.6 -266.6 266.6C-307.4 235.6 -350.7 200.2 -374.2 155C-397.7 109.8 -401.3 54.9 -405 0L0 0Z" fill="#7BB026"></path></g><g transform="translate(0, 450)"><path d="M0 -405C51.7 -395 103.5 -384.9 151.5 -365.9C199.6 -346.8 244.1 -318.7 282.8 -282.8C321.6 -247 354.8 -203.4 374.2 -155C393.6 -106.6 399.3 -53.3 405 0L0 0Z" fill="#7BB026"></path></g></svg>
